<?xml version="1.0" encoding="UTF-8" standalone="no"?>
<!-- Created with Inkscape (http://www.inkscape.org/) -->

<svg
   width="512"
   height="512"
   viewBox="0 0 512 512"
   version="1.1"
   id="svg1"
   xml:space="preserve"
   inkscape:version="1.4.3 (0d15f75, 2025-12-25)"
   sodipodi:docname="skull.svg"
   xmlns:inkscape="http://www.inkscape.org/namespaces/inkscape"
   xmlns:sodipodi="http://sodipodi.sourceforge.net/DTD/sodipodi-0.dtd"
   xmlns="http://www.w3.org/2000/svg"
   xmlns:svg="http://www.w3.org/2000/svg"><sodipodi:namedview
     id="namedview1"
     pagecolor="#505050"
     bordercolor="#ffffff"
     borderopacity="1"
     inkscape:showpageshadow="0"
     inkscape:pageopacity="0"
     inkscape:pagecheckerboard="1"
     inkscape:deskcolor="#505050"
     inkscape:document-units="px"
     inkscape:zoom="1"
     inkscape:cx="157.5"
     inkscape:cy="312.5"
     inkscape:window-width="1947"
     inkscape:window-height="1318"
     inkscape:window-x="0"
     inkscape:window-y="30"
     inkscape:window-maximized="0"
     inkscape:current-layer="layer1" /><defs
     id="defs1" /><g
     inkscape:label="Layer 1"
     inkscape:groupmode="layer"
     id="layer1"><path
       style="fill:#ffffff;stroke-width:1.16622"
       d="M 216.47857,447.88002 V 429.3097 l -1.30944,0.005 c -0.72021,0.002 -2.43129,0.13889 -3.80242,0.30359 l -2.49298,0.29946 -0.12591,14.33839 -0.12593,14.33842 h -5.71395 -5.71395 l -0.12444,-19.16555 -0.12444,-19.16553 h -4.04199 -4.04197 v 12.85638 12.85638 h -5.47586 -5.47587 v -12.85736 -12.85639 h 3.57121 3.57123 V 405.0253 389.78811 h -2.14273 -2.14274 v -3.09506 -3.09504 h 3.57122 3.57124 v 3.07329 3.07329 l 3.21408,0.14081 3.21409,0.14078 0.1369,4.4045 0.13692,4.4045 h 3.31526 3.31527 v -10.47557 -10.47557 h -3.31138 -3.31138 l -0.14079,-3.21409 -0.1408,-3.21411 -3.21409,-0.14079 -3.21409,-0.14079 v -3.54947 -3.54946 h -3.57124 -3.57122 v -2.61888 -2.6189 H 169.3385 157.9106 v 2.12187 2.12187 l 3.45217,0.1399 3.45218,0.13991 0.1399,3.45218 0.13991,3.45217 h -3.11592 -3.11592 v -1.44935 -1.44935 l -3.45217,0.13991 -3.45218,0.1399 -0.13907,3.69026 -0.13908,3.69025 h -8.07472 -8.07474 v -4.04737 -4.04738 h -1.90464 c -1.58721,0 -1.90465,-0.15872 -1.90465,-0.95233 0,-0.85465 -0.31744,-0.95232 -3.09504,-0.95232 h -3.09506 l -0.005,-1.78561 c -0.002,-0.98208 -0.13806,-2.58913 -0.30038,-3.57122 l -0.29515,-1.7856 h -3.73547 -3.73549 l -0.13055,-7.97573 -0.13056,-7.97571 -3.92834,-0.1383 -3.92835,-0.1383 v -10.93248 -10.93247 h 4.03616 4.03613 l 0.13027,-8.21381 0.1303,-8.21379 4.17602,-0.13772 4.17601,-0.13772 -0.12863,-9.86169 -0.12865,-9.86169 -3.69026,-0.13908 -3.69026,-0.13906 v -8.07474 -8.07472 h 3.80931 3.8093 v -11.42777 -11.42792 h 4.28546 4.28546 v -20.95113 -20.95114 h -4.28546 -4.28546 v -9.04709 -9.04708 h -4.04739 -4.04737 v 12.83784 12.83785 l 4.16641,0.13758 4.16642,0.13758 0.1267,12.97543 0.12669,12.97542 h -4.2931 -4.29311 v 12.6183 12.6183 h -4.27447 -4.27447 l -0.13005,-8.45189 c -0.11045,-7.18044 -0.23633,-8.42839 -0.83663,-8.29569 -0.38865,0.0858 -2.1564,0.0104 -3.92834,-0.16738 l -3.22172,-0.32355 V 194.9895 145.99311 h 4.03827 4.03826 l 0.12816,-10.59461 c 0.0974,-8.05081 0.27106,-10.6089 0.72335,-10.65413 0.32736,-0.0328 2.09017,-0.0864 3.91735,-0.11904 l 3.32215,-0.0595 0.13004,-8.45188 0.13002,-8.45187 3.92834,-0.13831 3.92832,-0.1383 v -3.79004 -3.790035 h 3.8093 3.8093 v -3.80929 -3.8093 h 3.03554 c 1.66954,0 3.71398,-0.1357 4.5432,-0.301547 1.47936,-0.295868 1.50182,-0.340447 1.19668,-2.375317 -0.24897,-1.66026 -0.15794,-2.132529 0.45651,-2.36831 0.60316,-0.231448 0.76748,-0.99725 0.76748,-3.576697 v -3.28219 h 4.28545 4.28547 V 75.997302 71.71183 h 7.64969 7.64968 l -0.10857,-3.690253 -0.10858,-3.690253 7.10094,-0.238086 7.10093,-0.238085 v -4.285469 -4.285459 l 13.45159,-0.126454 13.45159,-0.126454 v -4.754259 -4.754213 h 48.09171 48.0924 v 4.76163 4.761618 h 13.57062 13.57063 v 4.511451 4.511451 l 7.49956,0.131142 7.49956,0.13113 0.13906,3.690253 0.13907,3.690265 h 7.1224 7.12242 v 4.285455 4.285464 h 3.8093 3.8093 v 3.33313 3.333141 h 1.66655 1.66658 v 2.618893 2.618907 h 3.57122 3.57121 l 0.0893,2.3808 c 0.0491,1.30944 0.10263,2.97007 0.11904,3.69026 0.0293,1.28759 0.0893,1.31342 3.60098,1.54752 l 3.57121,0.238085 0.13909,3.69025 0.13907,3.69026 h 3.73521 3.73521 l 0.30068,2.0237 c 0.16539,1.11302 0.26313,5.02097 0.21722,8.68433 l -0.0835,6.66065 4.00326,0.006 4.00326,0.006 0.12815,10.59462 0.12815,10.59461 h 4.03828 4.03825 v 49.02545 49.02548 l -3.92833,0.13829 -3.92834,0.1383 -0.13002,8.45188 -0.13003,8.45189 h -4.27447 -4.27447 v -12.61872 -12.6183 h -4.29312 -4.29311 l 0.12669,-12.97542 0.1267,-12.97543 4.17416,-0.1377 4.17417,-0.13768 -0.12678,-12.7187 -0.12678,-12.71869 -3.92834,-0.13829 -3.92835,-0.1383 v 9.06634 9.06634 h -4.28546 -4.28547 v 20.9326 20.93261 l 4.16641,0.13758 4.16643,0.13758 0.12765,11.30887 0.12768,11.30885 h 3.80067 3.80069 v 8.07472 8.07475 l -3.69025,0.13905 -3.69027,0.13907 -0.12871,9.88038 -0.12868,9.88036 h 4.00405 4.00403 l 0.32447,1.72956 c 0.17845,0.95123 0.27144,4.64745 0.20662,8.21379 l -0.11785,6.48427 4.13183,0.13756 4.13185,0.13757 v 10.91395 10.91394 l -3.92835,0.13829 -3.92834,0.13831 -0.13054,7.9757 -0.13056,7.97573 h -3.77694 -3.77691 l -0.1399,3.45218 -0.13991,3.45218 -3.21411,0.14078 c -2.82355,0.12369 -3.21409,0.25387 -3.21409,1.07137 0,0.76824 -0.33229,0.93059 -1.90465,0.93059 h -1.90463 v 4.04737 4.04737 h -8.07473 -8.07473 l -0.13908,-3.69025 -0.13907,-3.69025 h -3.32414 c -3.22589,0 -3.32439,0.0352 -3.33313,1.19041 -0.008,1.14675 -0.1225,1.19038 -3.10405,1.19038 h -3.09506 v -3.33312 -3.33315 l 3.2141,-0.14078 3.21409,-0.1408 V 360.959 358.83802 H 342.44685 331.2808 l -0.1428,2.73793 -0.14281,2.73794 -3.69025,0.13907 -3.69027,0.13907 v 3.31311 3.31311 h -3.09505 -3.09505 v 3.33312 3.33313 h -3.33315 -3.33313 v 10.47558 10.47557 h 3.33313 3.33315 v -4.52354 -4.52355 h 3.09505 3.09505 v -3.09505 -3.09505 h 3.8093 3.80931 v 3.09505 3.09505 h -2.14273 -2.14272 v 15.2372 15.2372 h 3.57122 3.57121 v 12.85639 12.85637 h -5.47587 -5.47586 v -12.85701 -12.85639 h -4.04198 -4.04199 l -0.12444,19.16429 -0.12444,19.1643 -5.71395,10e-4 -5.71396,0.001 -0.23808,-14.52296 -0.23807,-14.52295 -3.8093,0.0676 -3.8093,0.0676 -0.096,18.26465 -0.096,18.26466 -6.20759,0.13281 -6.20756,0.13283 -0.12465,-18.4421 -0.12463,-18.44211 -1.19043,0.0283 c -0.65472,0.0155 -2.31533,0.0588 -3.69026,0.0961 l -2.49984,0.0679 v 18.33226 18.33225 h -7.6186 -7.6186 V 448.1175 429.78524 l -1.07136,-0.0924 c -0.58926,-0.0508 -2.30269,-0.10438 -3.80765,-0.11905 l -2.73627,-0.0266 -0.001,18.45129 -0.001,18.45129 h -7.6186 -7.6186 v -18.34719 c 0,-15.97333 -0.0936,-18.38313 -0.72347,-18.62482 -0.3979,-0.15269 -2.11209,-0.1289 -3.8093,0.0528 l -3.08582,0.33046 v 18.29436 18.29435 h -6.4282 -6.42819 z m 28.09357,-59.50025 v -3.31311 l 3.69026,-0.13907 3.69027,-0.13907 0.13247,-6.54724 0.13248,-6.54723 h 3.79586 3.79586 v 6.66628 6.66627 h 3.80931 3.8093 v 3.33313 3.33314 h 3.8093 3.8093 v -2.61889 -2.61889 h 2.85697 2.85698 v -3.09506 -3.09506 h 2.3808 2.38081 v -7.59774 -7.59773 l -3.45217,-0.13989 -3.45217,-0.13992 -0.12806,-11.16727 c -0.0941,-8.20514 -0.28355,-11.26606 -0.71425,-11.53965 -0.3224,-0.2048 -2.13967,-0.37565 -4.03838,-0.37966 l -3.45218,-0.007 v -7.38052 -7.38052 h -3.38717 -3.38716 l 0.17308,-4.1664 0.17309,-4.16643 -2.26178,-0.14514 c -2.15343,-0.13817 -2.26177,-0.2123 -2.26177,-1.54752 v -1.4024 h -3.57122 -3.57121 v 1.40112 c 0,1.30794 -0.13455,1.41084 -2.02369,1.54752 l -2.02368,0.14642 v 4.04738 4.04738 l -3.33315,0.23807 -3.33313,0.23809 -0.1491,7.13281 c -0.082,3.92306 -0.18915,7.1703 -0.23809,7.21609 -0.049,0.0458 -1.69602,0.15605 -3.66018,0.24499 l -3.57123,0.1617 -0.23807,11.43061 -0.23809,11.43061 -3.40923,0.13905 -3.40925,0.13903 -0.31775,4.38451 c -0.17475,2.41147 -0.24764,5.77729 -0.16198,7.47957 l 0.15578,3.09505 2.49985,0.14393 2.49985,0.14392 v 3.07017 3.07018 h 2.85697 2.85698 v 2.61888 2.6189 h 3.8093 3.8093 z m -28.09357,-50.5141 v -3.83017 l -3.45217,0.1399 -3.45217,0.13991 -0.13908,3.69027 -0.13907,3.69026 h 3.59124 3.59126 z m 86.08636,0.13991 -0.13905,-3.69027 -3.45219,-0.13991 -3.45217,-0.1399 v 3.83017 3.83016 h 3.59125 3.59125 z m -107.51366,-7.73764 v -3.33315 h 7.08291 7.08292 l 0.2976,-1.488 c 0.16368,-0.8184 0.29759,-2.42545 0.29759,-3.57121 v -2.08321 h 6.1674 6.16739 l 0.14176,-2.97603 0.14176,-2.97602 2.97602,-0.14175 2.976,-0.14177 v -3.07233 -3.07234 h 3.09507 3.09504 v -7.60365 c 0,-6.59925 0.0954,-7.56706 0.72195,-7.32662 0.39708,0.15238 1.897,0.13024 3.33314,-0.0492 l 2.61118,-0.32625 v -4.72736 -4.72735 h 4.04739 4.04738 v -6.66629 -6.66626 h -3.09507 -3.09504 v 2.85698 2.85697 h -10.47557 -10.47558 v -4.04739 -4.04737 h -7.61859 -7.6186 v -4.44972 -4.44973 l -6.50348,-0.31191 c -3.57691,-0.17153 -13.96015,-0.31189 -23.07384,-0.31189 h -16.57037 l -0.13907,3.69026 -0.13907,3.69026 -7.97571,0.13054 -7.97573,0.13056 v 3.55971 3.55971 h -4.52354 -4.52355 v 5.21852 5.21853 l 3.90926,0.13829 3.90925,0.13831 -0.14254,15.35622 -0.14254,15.35625 h 3.37573 3.37572 v 4.04738 4.04738 h 3.30826 3.30825 l 0.14392,2.49985 0.14393,2.49985 2.61889,0.0861 c 1.4404,0.0473 3.31527,0.1009 4.16642,0.11905 l 1.54753,0.033 v 3.33314 3.33313 h 14.99911 14.99913 z m 152.27465,-0.11904 0.1408,-3.2141 h 3.76266 3.76267 l 0.14392,-2.49986 0.14393,-2.49985 h 3.45299 3.45299 l 0.0717,-3.33313 c 0.0394,-1.83322 0.0926,-3.65454 0.11821,-4.04739 0.0354,-0.54467 0.80956,-0.74766 3.26062,-0.85502 l 3.21409,-0.14081 V 298.10523 282.6517 h 3.50635 3.50633 l 0.24278,-4.64144 c 0.13352,-2.55278 0.13979,-4.90978 0.014,-5.23778 -0.15924,-0.415 -1.49961,-0.59634 -4.40782,-0.59634 -4.7706,0 -4.74755,0.0224 -4.75972,-4.6308 l -0.007,-2.48805 -7.73764,-0.13083 -7.73763,-0.13084 -0.13879,-3.39661 c -0.13785,-3.37408 -0.14852,-3.39854 -1.60704,-3.69025 -1.91263,-0.38253 -16.45388,-0.37267 -32.18074,0.0218 l -12.49926,0.31351 v 4.44714 4.44712 h -7.6186 -7.6186 v 4.04737 4.04739 h -10.47557 -10.47557 v -2.85697 -2.85698 h -3.09505 -3.09506 v 6.66626 6.66628 h 4.04737 4.04739 v 4.76163 4.76162 h 3.33313 3.33314 l 0.0711,2.26177 c 0.0392,1.24397 0.10904,4.61877 0.15541,7.49956 l 0.0842,5.23779 2.93965,0.14175 2.93964,0.14177 v 3.04961 3.04961 l 2.97601,0.14177 2.97602,0.14175 0.1414,2.96236 0.14141,2.96235 6.28679,0.1327 6.28678,0.1327 0.1399,3.45219 0.1399,3.45217 h 7.12158 7.12157 v 3.01569 c 0,1.65864 0.14585,3.16154 0.3241,3.33981 0.17827,0.17825 6.98143,0.26753 15.11816,0.19839 l 14.79405,-0.1257 z"
       id="path1-0" /></g></svg>
