<?xml version="1.0" encoding="UTF-8" standalone="no"?>
<!-- Created with Inkscape (http://www.inkscape.org/) -->

<svg
   width="512"
   height="512"
   viewBox="0 0 512 512"
   version="1.1"
   id="svg1"
   xml:space="preserve"
   inkscape:version="1.4.4 (dcaf3e7d9e, 2026-05-05)"
   sodipodi:docname="pn-logo-skull-8bit-circle-safe-512x512.svg"
   inkscape:export-filename="/home/corenominal/Tmp/pn-logo-skull-circle-safe-512x512.png"
   inkscape:export-xdpi="96"
   inkscape:export-ydpi="96"
   xmlns:inkscape="http://www.inkscape.org/namespaces/inkscape"
   xmlns:sodipodi="http://sodipodi.sourceforge.net/DTD/sodipodi-0.dtd"
   xmlns="http://www.w3.org/2000/svg"
   xmlns:svg="http://www.w3.org/2000/svg"><sodipodi:namedview
     id="namedview1"
     pagecolor="#505050"
     bordercolor="#ffffff"
     borderopacity="1"
     inkscape:showpageshadow="0"
     inkscape:pageopacity="0"
     inkscape:pagecheckerboard="1"
     inkscape:deskcolor="#505050"
     inkscape:document-units="px"
     inkscape:zoom="1.7148438"
     inkscape:cx="255.70842"
     inkscape:cy="257.74942"
     inkscape:window-width="1920"
     inkscape:window-height="1131"
     inkscape:window-x="0"
     inkscape:window-y="0"
     inkscape:window-maximized="1"
     inkscape:current-layer="layer1" /><defs
     id="defs1" /><g
     inkscape:label="Layer 1"
     inkscape:groupmode="layer"
     id="layer1"><rect
       style="fill:#000000;stroke-width:30.989"
       id="rect2"
       width="512"
       height="512"
       x="0"
       y="0"
       ry="0" /><path
       style="fill:#ffffff"
       d="m 222.11138,420.53047 v -15.92344 l -1.1228,0.004 c -0.61755,0.002 -2.08475,0.11909 -3.26045,0.26032 l -2.13764,0.25677 -0.10797,12.2947 -0.10798,12.29471 h -4.89952 -4.89952 l -0.10671,-16.43382 -0.1067,-16.43381 h -3.46587 -3.46586 v 11.02393 11.02392 h -4.69537 -4.69538 v -11.02437 -11.02393 h 3.0622 3.0622 v -13.06539 -13.06539 h -1.83732 -1.83732 v -2.65391 -2.6539 h 3.0622 3.06221 v 2.63525 2.63525 l 2.75598,0.12073 2.75598,0.12073 0.11739,3.77671 0.1174,3.77672 h 2.84273 2.84273 v -8.98246 -8.98246 h -2.8394 -2.8394 l -0.12072,-2.75598 -0.12073,-2.75598 -2.75598,-0.12073 -2.75598,-0.12072 v -3.04355 -3.04355 h -3.06221 -3.0622 v -2.24561 -2.24561 h -9.79904 -9.79904 v 1.81943 1.81943 l 2.96012,0.11996 2.96013,0.11996 0.11996,2.96013 0.11996,2.96013 h -2.67179 -2.6718 v -1.24277 -1.24277 l -2.96012,0.11996 -2.96013,0.11997 -0.11925,3.16427 -0.11925,3.16427 h -6.92381 -6.92382 v -3.47049 -3.47049 h -1.63317 c -1.36098,0 -1.63317,-0.1361 -1.63317,-0.81659 0,-0.73284 -0.2722,-0.81659 -2.65391,-0.81659 h -2.65391 l -0.004,-1.5311 c -0.002,-0.8421 -0.11838,-2.22009 -0.25757,-3.0622 l -0.25308,-1.5311 h -3.20305 -3.20305 l -0.11195,-6.83892 -0.11194,-6.83891 -3.36842,-0.11859 -3.36843,-0.11858 v -9.37424 -9.37424 h 3.46086 3.46085 l 0.11171,-7.04306 0.11172,-7.04306 3.5808,-0.11809 3.5808,-0.11809 -0.1103,-8.45607 -0.11031,-8.45608 -3.16428,-0.11925 -3.16427,-0.11924 v -6.92382 -6.92381 h 3.26635 3.26635 v -9.79904 -9.79905 h 3.67464 3.67464 v -17.96491 -17.96491 h -3.67464 -3.67464 v -7.75758 -7.75757 h -3.4705 -3.47049 v 11.00802 11.00803 l 3.57256,0.11797 3.57257,0.11797 0.10864,11.126 0.10863,11.12599 h -3.68119 -3.6812 v 10.81978 10.81978 h -3.66522 -3.66522 l -0.11151,-7.24721 c -0.0947,-6.157 -0.20264,-7.22707 -0.71738,-7.11329 -0.33325,0.0736 -1.84904,0.009 -3.36842,-0.14351 l -2.76252,-0.27743 v -42.01279 -42.01279 h 3.46268 3.46268 l 0.10989,-9.08453 c 0.0835,-6.9033 0.23242,-9.09678 0.62025,-9.13557 0.2807,-0.0281 1.79225,-0.074 3.359,-0.10207 l 2.84863,-0.051 0.1115,-7.24721 0.11149,-7.2472 3.36842,-0.11859 3.36841,-0.11859 v -3.24983 -3.24984 h 3.26635 3.26635 v -3.26634 -3.26635 h 2.60287 c 1.43158,0 3.18462,-0.11635 3.89564,-0.25856 1.26851,-0.2537 1.28777,-0.29193 1.02612,-2.03676 -0.21348,-1.42362 -0.13543,-1.82857 0.39144,-2.03075 0.51719,-0.19846 0.65809,-0.85511 0.65809,-3.0669 v -2.81437 h 3.67464 3.67464 v -3.67464 -3.674645 h 6.55936 6.55935 l -0.0931,-3.164274 -0.0931,-3.164274 6.08882,-0.204147 6.08881,-0.204148 v -3.67464 -3.674641 l 11.53429,-0.108432 11.53429,-0.108432 v -4.076616 -4.076576 h 41.23706 41.23764 v 4.082935 4.082934 h 11.63636 11.63637 v 3.86842 3.868421 l 6.43062,0.112441 6.43062,0.112441 0.11925,3.164274 0.11925,3.164274 h 6.10722 6.10723 v 3.674645 3.67464 h 3.26635 3.26635 v 2.85805 2.85806 h 1.42902 1.42903 v 2.24561 2.24562 h 3.0622 3.0622 l 0.0766,2.04147 c 0.0421,1.1228 0.088,2.54673 0.10207,3.16427 0.0251,1.10407 0.0766,1.12621 3.08772,1.32695 l 3.0622,0.20415 0.11926,3.16427 0.11925,3.16428 h 3.20281 3.20282 l 0.25783,1.73525 c 0.14181,0.95438 0.22562,4.30532 0.18626,7.44653 l -0.0716,5.71128 3.43267,0.005 3.43266,0.005 0.10988,9.08453 0.10989,9.08453 h 3.46268 3.46268 v 42.03771 42.03772 l -3.36842,0.11858 -3.36842,0.11859 -0.11149,7.24721 -0.1115,7.24721 h -3.66522 -3.66522 v -10.82013 -10.81978 h -3.6812 -3.6812 l 0.10863,-11.12599 0.10864,-11.126 3.5792,-0.11807 3.57921,-0.11806 -0.10871,-10.90586 -0.1087,-10.90586 -3.36842,-0.11858 -3.36843,-0.11859 v 7.77409 7.77409 h -3.67464 -3.67465 v 17.94901 17.94902 l 3.57257,0.11797 3.57257,0.11797 0.10946,9.69697 0.10946,9.69697 h 3.25896 3.25896 v 6.92381 6.92382 l -3.16426,0.11924 -3.16429,0.11925 -0.11036,8.47209 -0.11035,8.47209 h 3.43334 3.43333 l 0.27822,1.48303 c 0.15302,0.81566 0.23275,3.98504 0.17717,7.04306 l -0.10105,5.56004 3.54291,0.11797 3.54292,0.11796 v 9.35835 9.35834 l -3.36843,0.11858 -3.36842,0.11859 -0.11194,6.83891 -0.11195,6.83892 h -3.23859 -3.23858 l -0.11996,2.96013 -0.11996,2.96012 -2.75599,0.12073 c -2.42111,0.10606 -2.75598,0.21768 -2.75598,0.91866 0,0.65873 -0.28492,0.79794 -1.63317,0.79794 h -1.63317 v 3.47049 3.47049 h -6.92382 -6.92381 l -0.11925,-3.16427 -0.11925,-3.16427 h -2.85034 c -2.7661,0 -2.85056,0.0302 -2.85805,1.02073 -0.007,0.9833 -0.10504,1.02073 -2.66162,1.02073 h -2.65391 v -2.85805 -2.85806 l 2.75598,-0.12072 2.75598,-0.12073 v -1.81867 -1.81866 h -9.57452 -9.57452 l -0.12245,2.34768 -0.12245,2.34769 -3.16427,0.11925 -3.16428,0.11925 v 2.84088 2.84088 h -2.65391 -2.6539 v 2.85805 2.85805 h -2.85806 -2.85805 v 8.98246 8.98246 h 2.85805 2.85806 v -3.87879 -3.87879 h 2.6539 2.65391 v -2.65391 -2.6539 h 3.26635 3.26635 v 2.6539 2.65391 h -1.83732 -1.83732 v 13.06539 13.06539 h 3.0622 3.0622 v 11.02393 11.02392 h -4.69538 -4.69537 v -11.02392 -11.02393 h -3.46586 -3.46587 l -0.1067,16.43275 -0.10671,16.43275 -4.89952,0.001 -4.89952,10e-4 -0.20415,-12.45295 -0.20414,-12.45295 -3.26635,0.058 -3.26635,0.058 -0.0823,15.66134 -0.0823,15.66134 -5.3228,0.11389 -5.32279,0.11389 -0.10688,-15.81349 -0.10687,-15.8135 -1.02074,0.0242 c -0.5614,0.0133 -1.98532,0.0504 -3.16427,0.0824 l -2.14354,0.0582 v 15.7193 15.7193 h -6.5327 -6.53269 v -15.7193 -15.7193 l -0.91866,-0.0792 c -0.50527,-0.0436 -1.97448,-0.0895 -3.26493,-0.10208 l -2.34627,-0.0228 -0.001,15.82137 -0.001,15.82137 h -6.53269 -6.5327 v -15.73211 c 0,-13.6966 -0.0803,-15.76292 -0.62035,-15.97017 -0.34119,-0.13092 -1.81105,-0.11053 -3.26635,0.0453 l -2.64599,0.28336 v 15.6868 15.6868 h -5.51197 -5.51196 z m 24.08932,-51.0195 v -2.84088 l 3.16427,-0.11925 3.16428,-0.11925 0.11359,-5.61404 0.1136,-5.61403 h 3.25482 3.25483 v 5.71611 5.71611 h 3.26635 3.26634 v 2.85805 2.85806 h 3.26635 3.26635 v -2.24562 -2.24561 h 2.44976 2.44976 v -2.65391 -2.65391 h 2.04147 2.04146 v -6.51481 -6.5148 l -2.96012,-0.11996 -2.96013,-0.11997 -0.1098,-9.57557 c -0.0807,-7.03563 -0.24313,-9.66027 -0.61244,-9.89487 -0.27645,-0.1756 -1.8347,-0.3221 -3.46277,-0.32554 l -2.96013,-0.006 v -6.32855 -6.32855 h -2.90439 -2.90438 l 0.14841,-3.57256 0.14841,-3.57257 -1.93939,-0.12445 c -1.8465,-0.11848 -1.9394,-0.18204 -1.9394,-1.32695 v -1.20251 h -3.0622 -3.0622 v 1.20141 c 0,1.12152 -0.11537,1.20975 -1.73524,1.32695 l -1.73525,0.12555 v 3.47049 3.4705 l -2.85806,0.20414 -2.85805,0.20415 -0.12785,6.11615 c -0.0703,3.36389 -0.16218,6.14829 -0.20415,6.18756 -0.042,0.0393 -1.45428,0.13381 -3.13849,0.21007 l -3.06221,0.13866 -0.20414,9.80137 -0.20415,9.80137 -2.92331,0.11922 -2.92331,0.11922 -0.27246,3.75957 c -0.14985,2.06776 -0.21235,4.95383 -0.13889,6.41348 l 0.13357,2.65391 2.14354,0.12341 2.14354,0.12341 v 2.63257 2.63257 h 2.44976 2.44976 v 2.24561 2.24562 h 3.26635 3.26635 z M 222.11138,326.1968 v -3.28424 l -2.96012,0.11996 -2.96013,0.11996 -0.11925,3.16428 -0.11924,3.16427 h 3.07937 3.07938 z m 73.81622,0.11996 -0.11925,-3.16428 -2.96013,-0.11996 -2.96012,-0.11996 v 3.28424 3.28423 h 3.07937 3.07938 z m -92.18942,-6.63477 v -2.85806 h 6.07336 6.07337 l 0.25518,-1.27591 c 0.14036,-0.70176 0.25518,-2.07975 0.25518,-3.0622 v -1.78629 h 5.28834 5.28833 l 0.12156,-2.55183 0.12155,-2.55184 2.55184,-0.12155 2.55183,-0.12156 v -2.63442 -2.63443 h 2.65391 2.6539 v -6.51988 c 0,-5.65864 0.0818,-6.4885 0.61905,-6.28233 0.34048,0.13066 1.62661,0.11167 2.85806,-0.0422 l 2.239,-0.27975 v -4.05355 -4.05356 h 3.4705 3.47049 v -5.71611 -5.7161 h -2.65391 -2.6539 v 2.44976 2.44976 h -8.98246 -8.98246 v -3.4705 -3.47049 h -6.53269 -6.5327 v -3.81549 -3.81549 l -5.57651,-0.26745 c -3.06709,-0.14709 -11.97037,-0.26744 -19.78506,-0.26744 H 174.3754 l -0.11925,3.16427 -0.11925,3.16428 -6.83891,0.11194 -6.83892,0.11195 v 3.05233 3.05233 h -3.87879 -3.87879 v 4.47471 4.47472 l 3.35206,0.11858 3.35205,0.11859 -0.12222,13.16746 -0.12222,13.16747 h 2.89457 2.89457 v 3.47049 3.4705 h 2.83672 2.83671 l 0.12341,2.14354 0.12341,2.14354 2.24562,0.0738 c 1.23509,0.0406 2.84274,0.0865 3.57257,0.10208 l 1.32695,0.0283 v 2.85806 2.85805 h 12.86124 12.86126 z m 130.57049,-0.10207 0.12072,-2.75599 h 3.22636 3.22636 l 0.12341,-2.14354 0.12341,-2.14354 h 2.96083 2.96083 l 0.0615,-2.85805 c 0.0338,-1.57193 0.0794,-3.13365 0.10136,-3.4705 0.0304,-0.46704 0.69417,-0.6411 2.79587,-0.73316 l 2.75598,-0.12073 v -13.25088 -13.25089 h 3.00657 3.00657 l 0.20817,-3.97988 c 0.11449,-2.18893 0.11987,-4.20998 0.012,-4.49122 -0.13655,-0.35586 -1.28587,-0.51135 -3.77956,-0.51135 -4.09063,0 -4.07087,0.0192 -4.0813,-3.97075 l -0.006,-2.13343 -6.63477,-0.11218 -6.63477,-0.11219 -0.119,-2.91248 c -0.11821,-2.89316 -0.12735,-2.91414 -1.37799,-3.16427 -1.64001,-0.328 -14.10866,-0.31955 -27.59392,0.0187 l -10.7177,0.26883 v 3.81327 3.81326 h -6.5327 -6.53269 v 3.47049 3.4705 h -8.98246 -8.98246 v -2.44976 -2.44976 h -2.6539 -2.65391 v 5.7161 5.71611 h 3.47049 3.4705 v 4.08294 4.08293 h 2.85805 2.85806 l 0.061,1.9394 c 0.0336,1.06666 0.0935,3.96044 0.13326,6.43062 l 0.0722,4.49123 2.52064,0.12155 2.52065,0.12156 v 2.61494 2.61494 l 2.55183,0.12156 2.55184,0.12155 0.12125,2.54012 0.12125,2.54012 5.39071,0.11379 5.39071,0.11379 0.11996,2.96013 0.11996,2.96012 h 6.10652 6.10651 v 2.58586 c 0,1.42223 0.12506,2.71092 0.27791,2.86377 0.15285,0.15285 5.98634,0.22941 12.96332,0.17012 l 12.68541,-0.10778 z"
       id="path1" /></g></svg>
